<?xml version="1.0" standalone="no"?>
<!DOCTYPE svg PUBLIC "-//W3C//DTD SVG 20010904//EN"
 "http://www.w3.org/TR/2001/REC-SVG-20010904/DTD/svg10.dtd">
<svg version="1.0" xmlns="http://www.w3.org/2000/svg"
 width="200.000000pt" height="200.000000pt" viewBox="0 0 200.000000 200.000000"
 preserveAspectRatio="xMidYMid meet">
<metadata>
Created by potrace 1.11, written by Peter Selinger 2001-2013
</metadata>
<g transform="translate(0.000000,200.000000) scale(0.100000,-0.100000)"
fill="#000000" stroke="none">
<path d="M1115 1969 c-13 -56 4 -120 40 -156 30 -30 39 -33 92 -33 105 0 142
53 135 193 l-2 27 -129 0 -129 0 -7 -31z"/>
<path d="M1010 1694 c-294 -29 -316 -31 -510 -49 -256 -25 -292 -31 -312 -56
-28 -33 -23 -83 10 -109 30 -25 9 -25 397 5 388 30 375 29 375 13 0 -18 -26
-55 -97 -138 -72 -83 -71 -101 10 -177 82 -76 184 -143 219 -143 43 0 89 49
193 206 135 203 150 211 251 126 37 -31 69 -62 71 -68 2 -5 -48 -79 -112 -163
-123 -164 -136 -195 -93 -225 49 -35 66 -24 220 132 80 81 155 166 167 189 23
47 27 97 8 130 -15 27 -228 224 -285 264 -123 87 -184 94 -512 63z"/>
<path d="M679 1108 c-119 -121 -229 -279 -229 -329 0 -35 42 -69 84 -69 60 0
306 280 306 348 0 18 -84 102 -102 102 -4 0 -30 -24 -59 -52z"/>
<path d="M549 583 c-347 -430 -354 -439 -354 -483 0 -39 3 -46 28 -58 37 -18
71 -4 125 51 50 52 625 770 643 804 12 22 10 27 -37 74 l-50 50 -355 -438z"/>
<path d="M731 307 c-40 -20 -64 -62 -69 -119 -9 -109 44 -168 151 -168 104 0
151 46 151 150 0 66 -23 114 -64 135 -35 18 -135 20 -169 2z m148 -43 c43 -30
56 -88 35 -156 -15 -49 -121 -69 -172 -31 -56 41 -52 156 6 187 36 20 102 20
131 0z"/>
</g>
</svg>
